<svg version="1.1" xmlns="http://www.w3.org/2000/svg" xmlns:xlink="http://www.w3.org/1999/xlink" width="512" height="512" viewBox="0,0,512,512"><g transform="translate(16,76)"><g data-paper-data="{&quot;isPaintingLayer&quot;:true}" fill="#404040" fill-rule="nonzero" stroke="none" stroke-width="1" stroke-linecap="butt" stroke-linejoin="miter" stroke-miterlimit="10" stroke-dasharray="" stroke-dashoffset="0" style="mix-blend-mode: normal"><path d="M496,181c0,140.05469 -114.42578,255 -256,255c-141.75,0 -256,-115.11719 -256,-255c0,-140.69922 115.30078,-257 256,-257c140.69922,0 256,116.30078 256,257zM285,331.30078c0,-16.80078 -4.5,-22.80078 -10.49609,-30.90234c-2.94922,-3.36719 -4.44141,-5.92969 -18.60156,-27.29688l23.09766,-3.60156c59.40234,-8.69922 82.80078,-39.60156 92.10156,-63.60156c12,-32.09766 5.69922,-72.29688 -15.89844,-97.79688c-3.30469,-3.90234 -6.00391,-10.50391 -3.60156,-17.40234c4.5,-13.80078 3.89844,-35.69922 0.89844,-44.10156c-15.83984,2.21094 -31.64062,13.21484 -45.89844,21.90234c-8.36719,4.88281 -13.19531,2.32813 -16.19922,2.39844c-16.80078,-4.80078 -33.90234,-7.19922 -50.10156,-7.19922c-26.24219,0 -43.33984,5.51953 -54.30078,7.80078c-3.01562,-0.30078 -6.3125,0.66797 -12.59766,-3c-13.64062,-8.23437 -29.99609,-19.62891 -45.90234,-21.90234c-3,8.40234 -3.60156,30.30078 0.90234,44.10156c2.39844,6.89844 -0.30078,13.5 -3.60156,17.40234c-21.60156,25.49609 -27.90234,65.69922 -15.90234,97.79688c9.30078,24 32.69922,54.90234 92.10156,63.60156l23.09766,3.60156c-13.69922,20.67188 -15.54297,23.80469 -18.59766,27.29688c-6,8.10156 -10.5,14.10156 -10.5,30.90234v70.19922c14.39844,3 29.69922,4.5 45,4.5c15.30078,0 30.60156,-1.5 45,-4.5zM466,181c0,-124.19922 -101.80078,-227 -226,-227c-124.19922,0 -226,102.80078 -226,227c0,97.80078 63.69922,181.19922 151,211.80078v-40.44922c-11.05469,2.35938 -21.32031,2.4375 -32.55078,-0.87109c-15.12891,-4.46875 -27.42187,-14.54687 -36.54687,-29.91406c-5.53125,-9.33203 -16.17969,-20.65234 -26.87891,-19.67187l-2.63672,-29.88281c23.10547,-2.125 43.39844,14.21484 55.3125,34.23047c5.30469,8.92187 11.41016,14.15234 19.24609,16.46875c7.42969,2.18359 15.41797,1.14844 24.62891,-2.02734c1.16016,-11.37109 4.10547,-19.77344 7.82813,-26.28516c-45.60156,-12.29688 -78.00391,-39.30078 -92.40234,-78c-15.30078,-40.5 -8.40234,-89.39844 17.10156,-123c-4.5,-20.09766 -4.5,-52.19922 6.29688,-67.19922c4.80078,-6.59766 11.40234,-10.19922 18.90234,-10.19922c23.90625,1.22656 42.03906,12.4375 62.70313,24.89844c16.49609,-4.5 35.09766,-7.19922 53.69531,-7.19922c18.30078,0 36.60156,2.39844 54.60156,7.19922c19.62891,-11.92578 37.9375,-23.64063 61.19922,-24.89844c0,0 0,0 0.30078,0c8.39844,0 15,3.60156 19.80078,10.19922c10.80078,15 10.80078,47.10156 6.29688,67.19922c25.50391,33.60156 32.40234,82.20312 17.10156,123c-14.39844,38.69922 -46.80078,65.70312 -92.40234,78c4.80078,8.40234 8.40234,19.80078 8.40234,36.90234v61.5c87.30078,-30.60156 151,-114 151,-211.80078zM315,392.80078"/></g></g></svg>