<svg version="1.1" xmlns="http://www.w3.org/2000/svg" xmlns:xlink="http://www.w3.org/1999/xlink" width="512" height="512" viewBox="0,0,512,512"><g transform="translate(16,76)"><g data-paper-data="{&quot;isPaintingLayer&quot;:true}" fill="#ffffff" fill-rule="nonzero" stroke="none" stroke-width="1" stroke-linecap="butt" stroke-linejoin="miter" stroke-miterlimit="10" stroke-dasharray="" stroke-dashoffset="0" style="mix-blend-mode: normal"><path d="M240,286.66797c-8.83203,0 -16,-7.16797 -16,-16v-330.66797c0,-8.83203 7.16797,-16 16,-16c8.83203,0 16,7.16797 16,16v330.66797c0,8.83203 -7.16797,16 -16,16zM240,286.66797"/><path d="M240,286.66797c-4.09766,0 -8.19141,-1.55859 -11.30859,-4.69531l-85.33203,-85.33203c-6.25,-6.25 -6.25,-16.38281 0,-22.63672c6.25,-6.25 16.38281,-6.25 22.63672,0l74.02344,74.02734l74.02734,-74.02734c6.25,-6.25 16.38672,-6.25 22.63672,0c6.25,6.25391 6.25,16.38672 0,22.63672l-85.33594,85.33203c-3.15625,3.13672 -7.25,4.69531 -11.34766,4.69531zM240,286.66797"/><path d="M437.33203,436h-394.66406c-32.36328,0 -58.66797,-26.30469 -58.66797,-58.66797v-96c0,-8.83203 7.16797,-16 16,-16c8.83203,0 16,7.16797 16,16v96c0,14.69922 11.96875,26.66797 26.66797,26.66797h394.66406c14.69922,0 26.66797,-11.96875 26.66797,-26.66797v-96c0,-8.83203 7.16797,-16 16,-16c8.83203,0 16,7.16797 16,16v96c0,32.36328 -26.30469,58.66797 -58.66797,58.66797zM437.33203,436"/></g></g></svg>