<svg version="1.1" xmlns="http://www.w3.org/2000/svg" xmlns:xlink="http://www.w3.org/1999/xlink" width="499.92363" height="624.04047" viewBox="0,0,499.92363,624.04047"><g transform="translate(9.96182,91.02024)"><g data-paper-data="{&quot;isPaintingLayer&quot;:true}" fill="#ffffff" fill-rule="nonzero" stroke="none" stroke-width="1" stroke-linecap="butt" stroke-linejoin="miter" stroke-miterlimit="10" stroke-dasharray="" stroke-dashoffset="0" style="mix-blend-mode: normal"><path d="M185.96182,-91.01932c0.3,-0.1 2.7,8 5.4,17.8l4.8,17.9l-2.7,4.6l-2.7,4.6l2.7,4.6l2.7,4.6l-4.7,17.6c-2.6,9.8 -4.8,17.8 -4.9,17.9c-0.1,0.1 -8.2,-2 -18,-4.6l-17.8,-4.7l-2.6,-4.7l-2.5,-4.7h-5.6h-5.6l-13,-13l-13,-13l13,-13l13,-13h5.6h5.6l2.5,-4.7l2.6,-4.7l17.4,-4.7c9.5,-2.6 17.5,-4.7 17.8,-4.8zM157.76182,-73.81932l-11.8,3.2l-7.6,7.5c-4.1,4.1 -8.4,8.7 -9.5,10.2l-2,2.8h15.5h15.4l7.6,-13.1c4.2,-7.1 7.6,-13.2 7.6,-13.5c0,-0.9 -3.8,-0.1 -15.2,2.9zM181.46182,-72.91932c-0.3,-0.4 -15.5,25.8 -15.5,26.8c0,1 15.2,27.2 15.5,26.8c0.2,-0.2 2,-6.3 4,-13.6l3.7,-13.2l-3.7,-13.3c-2,-7.2 -3.8,-13.3 -4,-13.5zM157.76182,-42.11932h-15.5h-15.4l2,2.7c1.1,1.6 5.5,6.2 9.8,10.5l7.8,7.6l12.8,3.3c7,1.7 13,3 13.3,2.6c0.3,-0.3 -2.9,-6.4 -7.1,-13.6z"/><path d="M290.96182,-76.11932c3.9,0 4,0.1 4,3.5c0,3.4 -0.1,3.5 -4,3.5c-3.9,0 -4,-0.1 -4,-3.5c0,-3.4 0.1,-3.5 4,-3.5z"/><path d="M303.96182,-76.11932h4.5h4.5v5.9c0,4.9 0.3,5.9 1.9,6.4c1,0.2 2.3,1.8 2.9,3.6c1.1,3 1,3.1 -1.9,3.1h-2.9v14.5v14.5h-4.5h-4.5v-14.5v-14.5h-3.1c-2.8,0 -3,-0.2 -2.7,-3.3c0.2,-2.7 0.8,-3.3 3.1,-3.5c2.6,-0.3 2.7,-0.5 2.7,-6.3z"/><path d="M277.76182,-62.51932c4.1,2.7 5.2,7.1 5.2,21.4v13h-4h-4v-10.5c0,-13.4 -1.3,-17.1 -6.5,-18.1c-2.8,-0.5 -4.3,-0.2 -6.3,1.3c-3.5,2.6 -4,4.8 -4.1,17l-0.1,10.3h-4h-4v-18v-18h4c3.4,0 4,0.3 4,2.2c0,2 0.1,2 1.8,0.5c0.9,-0.9 2.9,-2.1 4.2,-2.6c3.2,-1.4 10.7,-0.5 13.8,1.5z"/><path d="M212.96182,-64.21932l4.3,0.3l4.2,0.3l0.5,12.6c0.6,14.6 1.2,15.9 7.5,15.9c3.5,0 4.8,-0.5 6.4,-2.6c1.9,-2.4 2.1,-4 2.1,-14.5v-11.9h4h4v18v18h-4c-3,0 -4,-0.4 -4,-1.6c0,-1.3 -0.5,-1.2 -2.6,0.5c-4.1,3.2 -13.2,3 -17.3,-0.5c-4.1,-3.4 -5.1,-7.7 -5.1,-22.2z"/><path d="M286.96182,-64.11932h4h4v18v18h-4h-4v-18z"/><path d="M324.26182,-64.11932h4.5l4.3,12.1c5,13.8 4.1,14 10.1,-2.6l3.3,-9l4.3,-0.3c2.3,-0.2 4.2,0 4.2,0.5c0,0.4 -4.2,11.4 -9.2,24.5l-9.3,23.8h-4.2c-2.4,0 -4.3,-0.2 -4.3,-0.5c0,-0.3 1.2,-3.4 2.6,-7l2.7,-6.6l-6.1,-15.7c-3.4,-8.6 -6.4,-16.5 -6.8,-17.5c-0.5,-1.5 0,-1.7 3.9,-1.7z"/><path d="M94.46182,54.88068h145c92.7,0 146.3,0.4 148.6,1c4.7,1.3 11.1,7 13.2,11.7c0.9,2.1 21.3,64.2 45.2,138c37.9,117 43.5,134.9 43.5,140.3c0,6.8 -2.1,11.9 -6.7,16.1c-5.3,4.9 -230.8,168.2 -234.3,169.6c-4.6,2 -13.9,1.9 -17.9,-0.2c-6.4,-3.2 -230.7,-166.7 -234.7,-171c-4.6,-4.9 -6.9,-11.4 -6.2,-17.3c0.3,-2 20.5,-65 44.9,-140c48.5,-149.3 45.5,-141.3 55.1,-146.1zM309.76182,141.88068h-66.2h-66.3l-2.5,2.3c-1.4,1.3 -2.9,3.7 -3.2,5.3c-0.3,1.6 -5.1,32.3 -10.6,68.2c-6.5,43.3 -9.6,66.1 -9.1,67.5c0.5,1.2 1.7,3 2.7,3.9c2,1.8 40.4,11.8 45.3,11.8c3,0 3.9,-0.8 11.5,-9.6c7.2,-8.3 20.7,-12.7 32.7,-10.5c12.2,2.1 20.1,7.8 25.1,17.9c3,6.1 3.3,7.5 3.3,15.7c0,7.8 -0.4,9.7 -2.8,14.2c-3.9,7.5 -7.8,11.6 -14.4,15c-7.1,3.7 -10.1,4.5 -17.9,4.4c-8.4,0 -16.1,-3.1 -24,-9.7l-6.7,-5.4h-28.7h-28.8l-2.7,3.2c-3.6,4.2 -3,8.4 2.5,19.5c16,32.2 49.4,51.3 90.1,51.3c37.4,0 66.2,-14.5 84.5,-42.5c18.1,-27.8 20.9,-60.5 7.5,-89c-15.9,-34 -44.5,-50.9 -82.6,-49.1c-7.1,0.3 -14.8,0.9 -17.1,1.2c-3.4,0.5 -4.5,0.2 -7.2,-2.1c-2.7,-2.2 -3.2,-3.4 -3.2,-7c0,-7.9 1.8,-14.8 4.6,-17.3l2.5,-2.2h40.5h40.6l2.9,-2.9l2.9,-2.9v-22.5v-22.5l-2.6,-3.1z"/></g></g></svg>